<?xml version="1.0" standalone="no"?>
<!DOCTYPE svg PUBLIC "-//W3C//DTD SVG 20010904//EN"
 "http://www.w3.org/TR/2001/REC-SVG-20010904/DTD/svg10.dtd">
<svg version="1.0" xmlns="http://www.w3.org/2000/svg"
 width="128.000000pt" height="128.000000pt" viewBox="0 0 128.000000 128.000000"
 preserveAspectRatio="xMidYMid meet">
<metadata>
Created by potrace 1.14, written by Peter Selinger 2001-2017
</metadata>
<g transform="translate(0.000000,128.000000) scale(0.100000,-0.100000)"
fill="#000000" stroke="none">
<path d="M25 1255 l-25 -24 0 -295 c0 -186 4 -297 10 -301 13 -8 13 -65 0 -65
-15 0 -12 -21 4 -39 13 -14 13 -20 -1 -48 -19 -41 -10 -97 20 -118 17 -12 58
-15 223 -15 l202 0 -3 -44 c-1 -25 2 -50 6 -58 6 -10 54 -13 206 -14 109 -1
201 -2 205 -3 3 0 16 -39 29 -86 34 -132 53 -144 90 -57 l20 45 25 -24 c14
-13 45 -43 69 -66 23 -24 47 -43 53 -43 13 0 122 109 122 122 0 6 -29 40 -65
76 -36 37 -65 69 -65 73 0 3 18 12 40 19 76 25 77 52 2 73 l-47 14 0 154 c0
85 -4 159 -7 164 -4 7 -47 11 -107 10 l-101 -1 0 263 0 264 -25 24 -24 25
-416 0 -416 0 -24 -25z"/>
</g>
</svg>
